<?xml version="1.0" encoding="UTF-8" standalone="no"?>
<!-- Created with Inkscape (http://www.inkscape.org/) -->

<svg
   xmlns:dc="http://purl.org/dc/elements/1.1/"
   xmlns:cc="http://creativecommons.org/ns#"
   xmlns:rdf="http://www.w3.org/1999/02/22-rdf-syntax-ns#"
   xmlns:svg="http://www.w3.org/2000/svg"
   xmlns="http://www.w3.org/2000/svg"
   xmlns:sodipodi="http://sodipodi.sourceforge.net/DTD/sodipodi-0.dtd"
   xmlns:inkscape="http://www.inkscape.org/namespaces/inkscape"
   width="210mm"
   height="297mm"
   viewBox="0 0 210 297"
   version="1.1"
   id="svg8"
   inkscape:version="0.92.3 (2405546, 2018-03-11)"
   sodipodi:docname="mosspig.svg">
  <defs
     id="defs2" />
  <sodipodi:namedview
     id="base"
     pagecolor="#ffffff"
     bordercolor="#666666"
     borderopacity="1.0"
     inkscape:pageopacity="0.0"
     inkscape:pageshadow="2"
     inkscape:zoom="2.8"
     inkscape:cx="-640.7587"
     inkscape:cy="898.02114"
     inkscape:document-units="mm"
     inkscape:current-layer="layer1"
     showgrid="false"
     inkscape:window-width="1366"
     inkscape:window-height="719"
     inkscape:window-x="0"
     inkscape:window-y="25"
     inkscape:window-maximized="1" />
  <metadata
     id="metadata5">
    <rdf:RDF>
      <cc:Work
         rdf:about="">
        <dc:format>image/svg+xml</dc:format>
        <dc:type
           rdf:resource="http://purl.org/dc/dcmitype/StillImage" />
        <dc:title></dc:title>
      </cc:Work>
    </rdf:RDF>
  </metadata>
  <g
     inkscape:label="Layer 1"
     inkscape:groupmode="layer"
     id="layer1">
    <path
       style="fill:#000000;stroke-width:0.26458332"
       d="m -194.62946,61.878523 c -1.67349,-0.205467 -1.76185,-0.324707 -1.87099,-0.264975 -0.10914,0.05973 -0.19843,0.404842 -0.19843,0.766911 0,0.362069 -0.48491,1.541822 -1.07756,2.621674 -0.59266,1.079852 -1.39633,2.59229 -1.78594,3.360973 -0.6522,1.28677 -0.78979,1.404284 -1.73486,1.48177 -0.95359,0.07819 -1.01658,0.04061 -0.8871,-0.529167 l 8e-5,-10e-7 c 0.0767,-0.33733 0.40234,-1.327703 0.72375,-2.200827 0.65086,-1.768126 0.61906,-3.532328 -0.0945,-5.240034 l -0.40669,-0.973359 -1.93263,0.160985 c -1.2988,0.108188 -2.67697,0.02072 -4.20221,-0.266739 -1.24827,-0.235252 -3.41842,-0.427728 -4.82255,-0.427728 -2.94479,0 -2.92906,0.01184 -3.751,-2.824485 -0.53931,-1.861066 -0.42336,-2.467182 0.47197,-2.467182 1.26173,0 3.4396,-2.916508 4.40706,-5.901741 0.29862,-0.921434 0.27107,-1.090458 -0.32441,-1.99029 -1.10836,-1.674846 -1.8353,-3.272287 -1.59738,-3.510212 0.28635,-0.286345 3.21857,0.58864 4.49353,1.340883 l 0.96018,0.566521 1.22886,-0.528639 c 2.67001,-1.148611 5.33671,-1.663115 9.80227,-1.891221"
       id="path223" />
    <path
       style="fill:#000000;stroke-width:0.26458332"
       d="m -195.67425,68.624125 -1.49704,-2.864873 0.69049,-1.261508 0.55686,-1.629004 1.55606,3.338458 c 0.3046,0.935789 0.63237,2.147917 0.72838,2.69362 0.16832,0.956593 0.14742,0.99205 -0.58247,0.988375 -0.62832,-0.0032 -0.87527,-0.218284 -1.45228,-1.265068 z"
       id="path221"
       inkscape:connector-curvature="0"
       sodipodi:nodetypes="sccccccs" />
    <path
       sodipodi:nodetypes="csccccsccccccccccccccc"
       style="fill:#000000;stroke-width:0.26458332"
       d="m -197.22801,43.16164 c 3.84583,-0.857039 17.84618,-2.196319 42.96779,-1.789612 2.82413,0.04572 5.40968,2.353422 6.65296,4.36509 0.67351,1.089772 1.84232,1.628052 2.62526,1.209034 0.6071,-0.32491 0.73791,-1.309776 0.24008,-1.807604 -0.54256,-0.542562 -0.0553,-0.623095 0.59311,-0.09803 0.43826,0.354884 0.61957,0.775419 0.61957,1.437099 0,1.184121 -0.44426,1.718845 -1.60971,1.937483 -0.7944,0.149031 -0.89576,0.250373 -0.73475,0.734606 0.10272,0.308949 0.24347,1.53263 0.31277,2.719291 0.13916,2.383018 -0.28572,4.326957 -1.40548,6.430431 -0.79498,1.493356 -0.79316,1.773531 0.024,3.715128 0.69079,1.64125 0.83127,3.442734 0.49001,6.283854 l -0.16685,1.389062 h -0.9989 -0.99891 l -0.18206,-2.05052 c -0.25727,-2.8975 -0.7951,-3.626551 -3.48599,-4.725392 -0.75567,-0.308581 -1.99783,-1.009275 -2.76035,-1.557097 l -1.38641,-0.996037 -2.1126,0.713115 c -2.70338,0.912538 -32.20471,1.28163 -36.41072,0.765221"
       id="path225"
       inkscape:connector-curvature="0" />
    <path
       style="fill:#000000;stroke-width:0.26458332"
       d="m -156.08936,69.330141 c 0,-0.214101 0.23659,-1.144021 0.52575,-2.066494 0.28917,-0.922469 1.26654,-4.554802 1.26654,-4.554802 1.07844,0.673772 1.80758,1.344891 2.87659,1.547886 0,0 -0.25485,0.0315 -1.98984,3.843239 -0.64916,1.338612 -0.78476,1.461789 -1.69237,1.537328 -0.7293,0.0607 -0.98667,-0.01943 -0.98667,-0.307157 z"
       id="path170"
       inkscape:connector-curvature="0"
       sodipodi:nodetypes="scccccs" />
    <path
       inkscape:connector-curvature="0"
       style="fill:#000000;stroke-width:0.26458332"
       d="m -171.61164,61.865653 c -1.67349,-0.205467 -1.76185,-0.324707 -1.87099,-0.264975 -0.10914,0.05973 -0.19843,0.404842 -0.19843,0.766911 0,0.362069 -0.48491,1.541822 -1.07756,2.621674 -0.59266,1.079852 -1.39633,2.59229 -1.78594,3.360973 -0.6522,1.286771 -0.78979,1.404285 -1.73486,1.481771 -0.95359,0.07819 -1.01658,0.04061 -0.8871,-0.529168 l 8e-5,-1e-6 c 0.0767,-0.33733 0.40234,-1.327703 0.72375,-2.200827 0.65086,-1.768126 0.61906,-3.532328 -0.0945,-5.240034 l -0.40669,-5.698061 c 0.40669,0.973359 -1.89854,-0.630519 4.45021,0.214021"
       id="path223-6"
       sodipodi:nodetypes="ccsccccccccc" />
    <path
       inkscape:connector-curvature="0"
       style="fill:#000000;stroke-width:0.26458332"
       d="m -182.96047,61.804395 c -1.67349,-0.205467 -1.76185,-0.324707 -1.87099,-0.264975 -0.10914,0.05973 -0.19843,0.404842 -0.19843,0.766911 0,0.362069 -0.48491,1.541822 -1.07756,2.621674 -0.59266,1.079852 -1.39633,2.59229 -1.78594,3.360973 -0.6522,1.286771 -0.78979,1.404285 -1.73486,1.481771 -0.95359,0.07819 -1.01658,0.04061 -0.8871,-0.529168 l 8e-5,-10e-7 c 0.0767,-0.33733 0.40234,-1.327703 0.72375,-2.200827 0.65086,-1.768126 0.61906,-3.532328 -0.0945,-5.240034 l -0.40669,-5.698061 c 0.40669,0.973359 -1.89854,-0.630519 4.45021,0.214021"
       id="path223-6-5"
       sodipodi:nodetypes="ccsccccccccc" />
    <path
       inkscape:connector-curvature="0"
       style="fill:#000000;stroke-width:0.26458332"
       d="m -159.61899,58.936339 c -1.67349,-0.205468 -1.99809,2.604608 -2.10723,2.664339 -0.10914,0.05973 -0.19843,0.404842 -0.19843,0.766912 0,0.362068 -0.48491,1.541821 -1.07756,2.621673 -0.59266,1.079852 -1.39633,2.59229 -1.78594,3.360973 -0.6522,1.286771 -0.78979,1.404285 -1.73486,1.481771 -0.95359,0.07819 -1.01658,0.04061 -0.8871,-0.529168 l 8e-5,-1e-6 c 0.0767,-0.33733 0.40234,-1.327703 0.72375,-2.200827 0.65086,-1.768126 0.61906,-3.532328 -0.0945,-5.240034 l -0.40669,-5.698061 c 0.40669,0.973359 -1.89854,-0.630519 4.45021,0.214021"
       id="path223-6-56"
       sodipodi:nodetypes="ccsccccccccc" />
    <path
       style="fill:#000000;stroke-width:0.26458332"
       d="m -184.04803,68.624125 -1.49704,-2.864873 0.69049,-1.261508 0.55686,-1.629004 1.55606,3.338458 c 0.3046,0.935789 0.63237,2.147917 0.72838,2.69362 0.16832,0.956593 0.14742,0.99205 -0.58247,0.988375 -0.62832,-0.0032 -0.87527,-0.218284 -1.45228,-1.265068 z"
       id="path221-0"
       inkscape:connector-curvature="0"
       sodipodi:nodetypes="sccccccs" />
    <path
       style="fill:#000000;stroke-width:0.26458332"
       d="m -172.62226,68.624125 -1.49704,-2.864873 0.69049,-1.261508 0.55686,-1.629004 1.55606,3.338458 c 0.3046,0.935789 0.63237,2.147917 0.72838,2.69362 0.16832,0.956593 0.14742,0.99205 -0.58247,0.988375 -0.62832,-0.0032 -0.87527,-0.218284 -1.45228,-1.265068 z"
       id="path221-0-9"
       inkscape:connector-curvature="0"
       sodipodi:nodetypes="sccccccs" />
    <path
       style="fill:#000000;stroke-width:0.26458332"
       d="m -160.72876,68.557308 -1.49704,-2.864873 0.69049,-1.261508 0.55686,-1.629004 1.55606,3.338458 c 0.3046,0.935789 0.63237,2.147917 0.72838,2.69362 0.16832,0.956593 0.14742,0.99205 -0.58247,0.988375 -0.62832,-0.0032 -0.87527,-0.218284 -1.45228,-1.265068 z"
       id="path221-0-3"
       inkscape:connector-curvature="0"
       sodipodi:nodetypes="sccccccs" />
  </g>
</svg>
